<svg width="163" height="40" viewBox="0 0 163 40" fill="none" xmlns="http://www.w3.org/2000/svg">
<path d="M38.125 19.8876C38.1494 23.0542 37.3397 26.1714 35.7773 28.9259C35.575 29.2837 35.3607 29.6337 35.1344 29.9759C35.0225 30.1498 34.8772 30.2998 34.7069 30.4171C34.5366 30.5345 34.3447 30.6169 34.1424 30.6595C33.94 30.7021 33.7312 30.7041 33.528 30.6655C33.3249 30.6268 33.1314 30.5482 32.9589 30.4341C32.7864 30.3201 32.6382 30.173 32.5229 30.0013C32.4077 29.8296 32.3277 29.6367 32.2875 29.4338C32.2474 29.231 32.2479 29.0222 32.2891 28.8195C32.3302 28.6168 32.4112 28.4243 32.5273 28.2532C34.0185 25.9897 34.8685 23.3644 34.9869 20.6564C35.1054 17.9484 34.4879 15.2589 33.2001 12.8738C31.9122 10.4887 30.0022 8.49708 27.673 7.11069C25.3438 5.7243 22.6824 4.99493 19.9719 5.0001C14.7617 5.01026 10.1422 7.74541 7.45703 11.8321C5.85185 14.2703 4.99768 17.1259 5.00046 20.045C5.00324 22.9641 5.86284 25.8182 7.47265 28.2532C7.70088 28.5991 7.78235 29.0216 7.69913 29.4275C7.61591 29.8335 7.37482 30.1898 7.0289 30.4181C6.68298 30.6463 6.26056 30.7278 5.85458 30.6445C5.44859 30.5613 5.09229 30.3202 4.86406 29.9743C3.07906 27.2655 2.05377 24.1272 1.89517 20.887C1.73658 17.6468 2.45049 14.4235 3.96241 11.5533C5.47433 8.68306 7.72885 6.27121 10.4907 4.56941C13.2526 2.86761 16.4205 1.93822 19.6641 1.87822C19.7781 1.87588 19.8914 1.8751 20.0047 1.8751C24.7948 1.86523 29.3932 3.75637 32.7905 7.13341C36.1877 10.5105 38.1063 15.0975 38.125 19.8876V19.8876Z" fill="#F7F8FA"/>
<path d="M9.06588 22.7944L11.8978 36.8819C12.0678 37.7276 12.8911 38.2753 13.7368 38.1053C14.5825 37.9353 15.1303 37.1119 14.9603 36.2663L12.1284 22.1788C11.9584 21.3331 11.135 20.7853 10.2893 20.9553C9.44363 21.1253 8.89588 21.9487 9.06588 22.7944Z" fill="#6FCF97"/>
<path d="M11.8438 36.5641L11.1258 36.7086C10.0589 36.9234 8.95035 36.7225 8.02674 36.147C7.10313 35.5715 6.43429 34.6648 6.15703 33.6125C6.13594 33.5313 6.11641 33.45 6.1 33.3672L5.07109 28.2555C4.84812 27.1459 5.07482 25.9931 5.70138 25.0506C6.32793 24.108 7.30307 23.4528 8.4125 23.2289L9.13047 23.0844L10.3898 29.3406L11.8438 36.5641Z" fill="#F7F8FA"/>
<path d="M11.8437 36.5641L11.1258 36.7086C10.0589 36.9234 8.95035 36.7225 8.02674 36.147C7.10313 35.5715 6.43429 34.6649 6.15703 33.6125C7.6744 32.2981 9.08944 30.87 10.3898 29.3407L11.8437 36.5641Z" fill="#F7F8FA"/>
<path d="M36.1476 27.0875L35.7773 28.9258C35.575 29.2836 35.3607 29.6336 35.1344 29.9758C35.0225 30.1497 34.8772 30.2997 34.7069 30.4171C34.5366 30.5344 34.3447 30.6168 34.1424 30.6594C33.94 30.702 33.7312 30.7041 33.528 30.6654C33.3249 30.6267 33.1314 30.5481 32.9589 30.4341C32.7864 30.3201 32.6382 30.1729 32.5229 30.0012C32.4077 29.8295 32.3276 29.6366 32.2875 29.4338C32.2474 29.2309 32.2479 29.0221 32.2891 28.8194C32.3302 28.6167 32.4112 28.4243 32.5273 28.2531C33.5865 26.6502 34.3258 24.8577 34.7047 22.9742C35.2927 23.4668 35.7371 24.1089 35.991 24.8327C36.245 25.5566 36.2991 26.3355 36.1476 27.0875Z" fill="#F7F8FA"/>
<path d="M34.2953 8.8297L32.0539 11.0711C30.6573 9.1825 28.836 7.64891 26.7371 6.59426C24.6383 5.53961 22.3208 4.99349 19.9719 5.00001C14.7617 5.01017 10.1422 7.74533 7.45703 11.832L5.18359 9.55861C6.82274 7.22937 8.98843 5.31984 11.5046 3.98526C14.0207 2.65069 16.8163 1.92875 19.6641 1.87814C19.7781 1.8758 19.8914 1.87501 20.0047 1.87501C22.7591 1.86884 25.4786 2.49223 27.9553 3.69756C30.4321 4.90289 32.6006 6.65829 34.2953 8.8297V8.8297Z" fill="#9F75FF"/>
<path d="M27.8463 22.1635L25.0144 36.251C24.8444 37.0967 25.3922 37.9201 26.2378 38.0901C27.0835 38.2601 27.9069 37.7123 28.0769 36.8666L30.9088 22.7791C31.0788 21.9335 30.531 21.1101 29.6853 20.9401C28.8397 20.7701 28.0163 21.3178 27.8463 22.1635Z" fill="#6FCF97"/>
<path d="M34.9289 28.2555L33.9 33.3672C33.6766 34.4767 33.0216 35.4521 32.0791 36.0787C31.1366 36.7054 29.9838 36.9319 28.8742 36.7086L28.1562 36.5641L28.9 32.8711L30.8695 23.0844L31.5875 23.2289C32.6968 23.4531 33.672 24.108 34.2992 25.05C34.3856 25.1799 34.4646 25.3144 34.5359 25.4531C34.9817 26.3154 35.1203 27.3038 34.9289 28.2555V28.2555Z" fill="#F7F8FA"/>
<path d="M34.9289 28.2555L33.9 33.3672C33.6766 34.4767 33.0216 35.4521 32.0791 36.0788C31.1366 36.7054 29.9838 36.9319 28.8742 36.7086L28.1562 36.5641L28.9 32.8711C31.0403 30.6086 32.9299 28.1215 34.5359 25.4531C34.9817 26.3154 35.1203 27.3039 34.9289 28.2555V28.2555Z" fill="#F7F8FA"/>
<path d="M58.208 29V12.2H65.048C66.68 12.2 68.104 12.56 69.32 13.28C70.552 13.984 71.504 14.968 72.176 16.232C72.864 17.496 73.208 18.952 73.208 20.6C73.208 22.264 72.864 23.728 72.176 24.992C71.504 26.24 70.56 27.224 69.344 27.944C68.128 28.648 66.696 29 65.048 29H58.208ZM64.928 15.344H61.664V25.856H64.928C66.416 25.856 67.584 25.384 68.432 24.44C69.28 23.496 69.704 22.216 69.704 20.6C69.704 19 69.272 17.728 68.408 16.784C67.56 15.824 66.4 15.344 64.928 15.344Z" fill="#F7F8FA"/>
<path d="M81.9853 29.24C80.6253 29.24 79.4333 28.96 78.4093 28.4C77.3853 27.84 76.5853 27.072 76.0093 26.096C75.4493 25.12 75.1693 24 75.1693 22.736C75.1693 21.424 75.4413 20.272 75.9853 19.28C76.5453 18.272 77.3053 17.48 78.2653 16.904C79.2413 16.328 80.3613 16.04 81.6253 16.04C82.7613 16.04 83.7773 16.32 84.6733 16.88C85.5853 17.424 86.2893 18.168 86.7853 19.112C87.2973 20.056 87.5373 21.136 87.5053 22.352L87.4813 23.384H78.3613C78.5373 24.296 78.9693 25.016 79.6573 25.544C80.3613 26.072 81.2493 26.336 82.3213 26.336C82.8973 26.336 83.4173 26.248 83.8813 26.072C84.3613 25.896 84.8733 25.584 85.4173 25.136L87.0013 27.344C86.3133 27.952 85.5213 28.424 84.6253 28.76C83.7453 29.08 82.8653 29.24 81.9853 29.24ZM81.6493 18.872C79.8413 18.872 78.7533 19.688 78.3853 21.32H84.3853V21.224C84.3373 20.536 84.0493 19.976 83.5213 19.544C83.0093 19.096 82.3853 18.872 81.6493 18.872Z" fill="#F7F8FA"/>
<path d="M93.8214 29L88.4934 16.328H92.0934L95.1894 24.872L98.4054 16.328H101.909L96.3174 29H93.8214Z" fill="#F7F8FA"/>
<path d="M109.161 29.24C107.961 29.24 106.881 28.952 105.921 28.376C104.977 27.8 104.225 27.016 103.665 26.024C103.121 25.032 102.849 23.904 102.849 22.64C102.849 21.392 103.121 20.272 103.665 19.28C104.225 18.288 104.977 17.504 105.921 16.928C106.881 16.352 107.961 16.064 109.161 16.064C110.297 16.064 111.329 16.272 112.257 16.688C113.201 17.104 113.937 17.688 114.465 18.44L112.665 20.6C112.329 20.136 111.865 19.744 111.273 19.424C110.681 19.088 110.081 18.92 109.473 18.92C108.801 18.92 108.201 19.088 107.673 19.424C107.161 19.744 106.753 20.184 106.449 20.744C106.161 21.304 106.017 21.936 106.017 22.64C106.017 23.344 106.169 23.976 106.473 24.536C106.777 25.096 107.193 25.544 107.721 25.88C108.249 26.2 108.841 26.36 109.497 26.36C110.121 26.36 110.697 26.224 111.225 25.952C111.753 25.664 112.233 25.264 112.665 24.752L114.465 26.912C113.921 27.616 113.169 28.184 112.209 28.616C111.249 29.032 110.233 29.24 109.161 29.24Z" fill="#F7F8FA"/>
<path d="M121.425 29.24C120.369 29.24 119.417 28.952 118.569 28.376C117.721 27.8 117.041 27.016 116.529 26.024C116.033 25.032 115.785 23.904 115.785 22.64C115.785 21.344 116.033 20.208 116.529 19.232C117.041 18.24 117.729 17.464 118.593 16.904C119.473 16.344 120.465 16.064 121.569 16.064C122.465 16.064 123.249 16.248 123.921 16.616C124.593 16.968 125.129 17.432 125.529 18.008V16.328H128.793V29H125.505V27.296C125.057 27.856 124.473 28.32 123.753 28.688C123.049 29.056 122.273 29.24 121.425 29.24ZM122.313 26.384C123.289 26.384 124.081 26.04 124.689 25.352C125.297 24.664 125.601 23.76 125.601 22.64C125.601 21.52 125.297 20.616 124.689 19.928C124.081 19.24 123.289 18.896 122.313 18.896C121.353 18.896 120.569 19.24 119.961 19.928C119.369 20.616 119.073 21.52 119.073 22.64C119.073 23.76 119.369 24.664 119.961 25.352C120.569 26.04 121.353 26.384 122.313 26.384Z" fill="#F7F8FA"/>
<path d="M136.484 29.24C135.316 29.24 134.276 29.048 133.364 28.664C132.452 28.28 131.716 27.736 131.156 27.032L133.22 25.28C133.7 25.808 134.244 26.192 134.852 26.432C135.46 26.656 136.076 26.768 136.7 26.768C137.196 26.768 137.596 26.656 137.9 26.432C138.204 26.208 138.356 25.896 138.356 25.496C138.356 25.144 138.212 24.864 137.924 24.656C137.636 24.464 136.948 24.224 135.86 23.936C134.244 23.52 133.1 22.952 132.428 22.232C131.836 21.592 131.54 20.8 131.54 19.856C131.54 19.104 131.764 18.448 132.212 17.888C132.66 17.312 133.252 16.864 133.988 16.544C134.724 16.224 135.524 16.064 136.388 16.064C137.38 16.064 138.316 16.24 139.196 16.592C140.076 16.944 140.812 17.424 141.404 18.032L139.628 19.976C139.18 19.56 138.66 19.216 138.068 18.944C137.492 18.656 136.956 18.512 136.46 18.512C135.308 18.512 134.732 18.912 134.732 19.712C134.748 20.096 134.924 20.4 135.26 20.624C135.58 20.848 136.308 21.112 137.444 21.416C138.964 21.816 140.036 22.344 140.66 23C141.204 23.56 141.476 24.304 141.476 25.232C141.476 26 141.252 26.688 140.804 27.296C140.372 27.904 139.78 28.384 139.028 28.736C138.276 29.072 137.428 29.24 136.484 29.24Z" fill="#F7F8FA"/>
<path d="M145.203 29V19.28H142.803V16.328H145.203V13.088H148.467V16.328H151.131V19.28H148.467V29H145.203Z" fill="#F7F8FA"/>
</svg>
